<svg enable-background="new 0 0 112.196 112.196" viewBox="0 0 112.196 112.196"
    xmlns="http://www.w3.org/2000/svg" width="100%" height="100%">
    <circle cx="56.098" cy="56.097" fill="#00ff00" r="56.098" />
    <path
        d="m56.098 22.097c-18.8 0-34 15.2-34 34 0 15.02 9.74 27.76 23.25 32.24 1.7.31 2.32-.74 2.32-1.64 0-.81-.03-2.95-.05-5.79-9.46 2.06-11.46-4.56-11.46-4.56-1.55-3.93-3.78-4.97-3.78-4.97-3.09-2.11.23-2.07.23-2.07 3.42.24 5.22 3.51 5.22 3.51 3.04 5.21 7.97 3.7 9.91 2.83.31-2.2 1.19-3.7 2.16-4.55-7.56-.86-15.51-3.78-15.51-16.83 0-3.72 1.33-6.76 3.51-9.14-.35-.86-1.52-4.33.33-9.02 0 0 2.86-.92 9.38 3.49 2.72-.76 5.64-1.14 8.54-1.15 2.9.01 5.82.39 8.54 1.15 6.52-4.41 9.38-3.49 9.38-3.49 1.85 4.69.68 8.16.33 9.02 2.18 2.38 3.51 5.42 3.51 9.14 0 13.09-7.96 15.96-15.54 16.81 1.22 1.05 2.31 3.13 2.31 6.31 0 4.55-.04 8.22-.04 9.34 0 .91.61 1.96 2.33 1.63 13.5-4.49 23.24-17.22 23.24-32.23 0-18.8-15.2-34-34-34z"
        fill="black" />
</svg> 