<svg width="99" height="18" viewBox="0 0 99 18" fill="none" xmlns="http://www.w3.org/2000/svg">
<g id="Group 994930">
<g id="ozma.io">
<path id="Vector" d="M93.5623 15.5724C92.4318 15.5724 91.4601 15.3411 90.6472 14.8786C89.839 14.4115 89.2153 13.7621 88.7762 12.9306C88.3417 12.0943 88.1245 11.125 88.1245 10.0225C88.1245 8.9153 88.3417 7.94594 88.7762 7.11439C89.2153 6.27817 89.839 5.62881 90.6472 5.16632C91.4601 4.69916 92.4318 4.46558 93.5623 4.46558C94.6928 4.46558 95.6622 4.69916 96.4704 5.16632C97.2832 5.62881 97.9069 6.27817 98.3414 7.11439C98.7805 7.94594 99.0001 8.9153 99.0001 10.0225C99.0001 11.125 98.7805 12.0943 98.3414 12.9306C97.9069 13.7621 97.2832 14.4115 96.4704 14.8786C95.6622 15.3411 94.6928 15.5724 93.5623 15.5724ZM93.5833 12.9866C93.9944 12.9866 94.3424 12.8605 94.6274 12.6082C94.9124 12.356 95.1296 12.0056 95.2791 11.5571C95.4333 11.1086 95.5104 10.5901 95.5104 10.0015C95.5104 9.40349 95.4333 8.88026 95.2791 8.43179C95.1296 7.98331 94.9124 7.63294 94.6274 7.38067C94.3424 7.1284 93.9944 7.00227 93.5833 7.00227C93.1582 7.00227 92.7985 7.1284 92.5042 7.38067C92.2145 7.63294 91.9926 7.98331 91.8385 8.43179C91.689 8.88026 91.6142 9.40349 91.6142 10.0015C91.6142 10.5901 91.689 11.1086 91.8385 11.5571C91.9926 12.0056 92.2145 12.356 92.5042 12.6082C92.7985 12.8605 93.1582 12.9866 93.5833 12.9866Z" fill="black"/>
<path id="Vector_2" d="M83.7358 15.3691C83.2817 15.3691 82.9136 15.001 82.9136 14.5469V5.42787C82.9136 4.97378 83.2817 4.60566 83.7358 4.60566H85.5181C85.9721 4.60566 86.3403 4.97378 86.3403 5.42787V14.5469C86.3403 15.001 85.9722 15.3691 85.5181 15.3691H83.7358ZM84.6304 3.35133C84.1493 3.35133 83.7358 3.1925 83.3901 2.87483C83.0444 2.55248 82.8716 2.16474 82.8716 1.71159C82.8716 1.26311 83.0444 0.880042 83.3901 0.562371C83.7358 0.240029 84.1493 0.0788574 84.6304 0.0788574C85.1163 0.0788574 85.5297 0.240029 85.8708 0.562371C86.2165 0.880042 86.3893 1.26311 86.3893 1.71159C86.3893 2.16474 86.2165 2.55248 85.8708 2.87483C85.5297 3.1925 85.1163 3.35133 84.6304 3.35133Z" fill="black"/>
<path id="Vector_3" d="M78.8118 15.5723C78.3072 15.5723 77.8751 15.3948 77.5154 15.0397C77.1604 14.6847 76.9852 14.2549 76.9898 13.7504C76.9852 13.2552 77.1604 12.8324 77.5154 12.482C77.8751 12.127 78.3072 11.9495 78.8118 11.9495C79.2883 11.9495 79.7087 12.127 80.0731 12.482C80.4422 12.8324 80.629 13.2552 80.6337 13.7504C80.629 14.0867 80.5403 14.3927 80.3674 14.6684C80.1992 14.944 79.9773 15.1635 79.7017 15.327C79.4308 15.4906 79.1341 15.5723 78.8118 15.5723Z" fill="black"/>
<path id="Vector_4" d="M68.34 15.5513C67.6533 15.5513 67.0436 15.4369 66.5111 15.208C65.9832 14.9744 65.5651 14.624 65.2567 14.1569C64.9531 13.685 64.8013 13.0941 64.8013 12.384C64.8013 11.786 64.9064 11.2815 65.1166 10.8704C65.3268 10.4593 65.6165 10.1253 65.9855 9.86831C66.3546 9.61137 66.7797 9.4175 67.2609 9.28669C67.7421 9.15122 68.2559 9.06012 68.8025 9.0134C69.4145 8.95735 69.9074 8.89895 70.2811 8.83822C70.6548 8.77282 70.9258 8.68172 71.0939 8.56493C71.2668 8.44347 71.3532 8.27295 71.3532 8.05338V8.01835C71.3532 7.65863 71.2294 7.38067 70.9818 7.18446C70.7342 6.98825 70.4002 6.89015 69.9798 6.89015C69.5266 6.89015 69.1622 6.98825 68.8866 7.18446C68.8018 7.2448 68.7266 7.31221 68.6608 7.38669C68.3973 7.6851 68.0715 7.98705 67.6736 7.97294L66.1148 7.91764C65.6265 7.90031 65.2526 7.45684 65.4327 7.00256C65.5552 6.69343 65.7185 6.40369 65.9225 6.13335C66.3149 5.6148 66.8521 5.20836 67.5342 4.91405C68.2209 4.61507 69.0454 4.46558 70.0078 4.46558C70.6945 4.46558 71.3275 4.54733 71.9068 4.71084C72.4861 4.86967 72.9906 5.10325 73.4204 5.41158C73.8502 5.71524 74.1819 6.08897 74.4155 6.53277C74.6537 6.97658 74.7729 7.48345 74.7729 8.05338V14.5469C74.7729 15.001 74.4047 15.3692 73.9506 15.3692H72.2992C71.8851 15.3692 71.5494 15.0335 71.5494 14.6194V13.922C71.5494 13.893 71.526 13.8696 71.497 13.8696C71.4775 13.8696 71.4597 13.8804 71.4505 13.8975C71.2612 14.2498 71.0209 14.5488 70.7296 14.7945C70.4352 15.0468 70.0872 15.236 69.6855 15.3621C69.2884 15.4883 68.8399 15.5513 68.34 15.5513ZM69.3981 13.309C69.7672 13.309 70.0989 13.2342 70.3932 13.0847C70.6922 12.9352 70.9304 12.7297 71.108 12.4681C71.2855 12.2018 71.3742 11.8935 71.3742 11.5431V10.9045C71.3742 10.7296 71.1843 10.6099 71.0169 10.6602C70.8814 10.7022 70.7319 10.7419 70.5684 10.7793C70.4049 10.8167 70.2367 10.8494 70.0639 10.8774C69.891 10.9054 69.7252 10.9311 69.5663 10.9545C69.244 11.0059 68.9684 11.0853 68.7394 11.1927C68.5152 11.3002 68.3424 11.4403 68.2209 11.6132C68.1041 11.7813 68.0457 11.9822 68.0457 12.2158C68.0457 12.5708 68.1718 12.8418 68.4241 13.0287C68.6811 13.2155 69.0057 13.309 69.3981 13.309Z" fill="black"/>
<path id="Vector_5" d="M47.8432 15.3692C47.3891 15.3692 47.021 15.001 47.021 14.5469V5.42793C47.021 4.97384 47.3891 4.60572 47.8432 4.60572H49.4572C49.9113 4.60572 50.2795 4.97384 50.2795 5.42793V6.51233C50.2795 6.55071 50.3106 6.58182 50.3489 6.58182C50.3786 6.58182 50.405 6.5629 50.415 6.53494C50.6411 5.90308 51.014 5.40249 51.5338 5.03318C52.0664 4.65478 52.7017 4.46558 53.4398 4.46558C54.1873 4.46558 54.8273 4.65711 55.3598 5.04019C55.8766 5.41191 56.2109 5.90682 56.3626 6.52489C56.3707 6.55809 56.4002 6.58182 56.4344 6.58182C56.4663 6.58182 56.4945 6.56105 56.5046 6.53076C56.71 5.91455 57.097 5.42002 57.6653 5.04719C58.2493 4.65945 58.9383 4.46558 59.7325 4.46558C60.7509 4.46558 61.5778 4.79259 62.2131 5.44662C62.8485 6.09597 63.1661 6.98825 63.1661 8.12346V14.5469C63.1661 15.001 62.798 15.3692 62.3439 15.3692H60.5617C60.1076 15.3692 59.7395 15.001 59.7395 14.5469V8.90829C59.7395 8.37106 59.6017 7.96229 59.3261 7.68199C59.0504 7.39702 58.6931 7.25454 58.2539 7.25454C57.7821 7.25454 57.4107 7.4087 57.1397 7.71703C56.8735 8.02068 56.7403 8.42945 56.7403 8.94333V14.5469C56.7403 15.001 56.3722 15.3692 55.9181 15.3692H54.269C53.8149 15.3692 53.4468 15.001 53.4468 14.5469V8.87326C53.4468 8.37339 53.3113 7.97864 53.0404 7.689C52.7694 7.39936 52.4121 7.25454 51.9682 7.25454C51.6693 7.25454 51.4053 7.32695 51.1764 7.47177C50.9475 7.61192 50.7676 7.8128 50.6368 8.07441C50.5107 8.33602 50.4476 8.64435 50.4476 8.99939V14.5469C50.4476 15.001 50.0795 15.3692 49.6254 15.3692H47.8432Z" fill="black"/>
<path id="Vector_6" d="M36.3701 15.3689C35.916 15.3689 35.5479 15.0008 35.5479 14.5467V13.7082C35.5479 13.5178 35.6139 13.3334 35.7347 13.1864L40.5254 7.35265C40.533 7.34342 40.5371 7.33184 40.5371 7.3199C40.5371 7.2914 40.514 7.2683 40.4855 7.2683H36.5452C36.0912 7.2683 35.723 6.90018 35.723 6.44609V5.42768C35.723 4.97358 36.0912 4.60547 36.5452 4.60547H43.8003C44.2544 4.60547 44.6225 4.97358 44.6225 5.42767V6.46538C44.6225 6.6496 44.5606 6.82849 44.4468 6.97335L40.0087 12.6218C40.0015 12.631 39.9976 12.6423 39.9976 12.654C39.9976 12.6828 40.0209 12.7061 40.0496 12.7061H43.9685C44.4226 12.7061 44.7907 13.0742 44.7907 13.5283V14.5467C44.7907 15.0008 44.4226 15.3689 43.9685 15.3689H36.3701Z" fill="black"/>
<path id="Vector_7" d="M28.3098 15.5724C27.1793 15.5724 26.2076 15.3411 25.3947 14.8786C24.5866 14.4115 23.9629 13.7621 23.5238 12.9306C23.0893 12.0943 22.8721 11.125 22.8721 10.0225C22.8721 8.9153 23.0893 7.94594 23.5238 7.11439C23.9629 6.27817 24.5866 5.62881 25.3947 5.16632C26.2076 4.69916 27.1793 4.46558 28.3098 4.46558C29.4404 4.46558 30.4097 4.69916 31.2179 5.16632C32.0308 5.62881 32.6545 6.27817 33.0889 7.11439C33.5281 7.94594 33.7476 8.9153 33.7476 10.0225C33.7476 11.125 33.5281 12.0943 33.0889 12.9306C32.6545 13.7621 32.0308 14.4115 31.2179 14.8786C30.4097 15.3411 29.4404 15.5724 28.3098 15.5724ZM28.3309 12.9866C28.742 12.9866 29.09 12.8605 29.375 12.6082C29.6599 12.356 29.8772 12.0056 30.0267 11.5571C30.1808 11.1086 30.2579 10.5901 30.2579 10.0015C30.2579 9.40349 30.1808 8.88026 30.0267 8.43179C29.8772 7.98331 29.6599 7.63294 29.375 7.38067C29.09 7.1284 28.742 7.00227 28.3309 7.00227C27.9057 7.00227 27.546 7.1284 27.2517 7.38067C26.9621 7.63294 26.7402 7.98331 26.586 8.43179C26.4365 8.88026 26.3618 9.40349 26.3618 10.0015C26.3618 10.5901 26.4365 11.1086 26.586 11.5571C26.7402 12.0056 26.9621 12.356 27.2517 12.6082C27.546 12.8605 27.9057 12.9866 28.3309 12.9866Z" fill="black"/>
</g>
<g id="Group 994933">
<path id="Subtract" fill-rule="evenodd" clip-rule="evenodd" d="M0 2.54256C0 1.99765 0.441738 1.55591 0.986648 1.55591H1.47381C1.90248 1.55591 2.27651 1.83545 2.44373 2.23015C3.66799 5.11982 6.5304 7.14701 9.86629 7.14701C11.4694 7.14701 12.9632 6.67882 14.2184 5.87172C15.0273 5.35162 16.4441 5.8803 16.4441 6.84194V17.0134C16.4441 17.5583 16.0024 18 15.4575 18H14.9962C14.5441 18 14.1558 17.6901 14.0038 17.2642C12.8911 14.1468 9.91257 11.9157 6.41292 11.9157C4.84679 11.9157 3.38502 12.3625 2.14813 13.1356C1.34732 13.6362 0 13.1158 0 12.1714V2.54256ZM12.2128 16.7691C12.535 17.3511 12.0634 18 11.3981 18H1.42773C0.762435 18 0.290791 17.3511 0.613035 16.7691C1.74232 14.7294 3.91635 13.3484 6.41292 13.3484C8.90949 13.3484 11.0835 14.7294 12.2128 16.7691ZM9.86629 5.78166C7.55909 5.78166 5.52458 4.61412 4.32137 2.83763C3.93061 2.26069 4.39923 1.55591 5.09604 1.55591H14.6365C15.3334 1.55591 15.802 2.26069 15.4112 2.83763C14.208 4.61412 12.1735 5.78166 9.86629 5.78166Z" fill="#1F1F1F"/>
<path id="Union" d="M14.9597 1.55586C15.5954 1.55586 16.1265 2.08735 15.8973 2.68032C15.83 2.85442 15.747 3.02571 15.6486 3.19312C15.3435 3.7122 14.8964 4.18384 14.3326 4.58112C13.7689 4.97841 13.0996 5.29355 12.363 5.50856C11.6265 5.72356 10.837 5.83423 10.0398 5.83423C9.24251 5.83423 8.45307 5.72356 7.7165 5.50856C6.97993 5.29355 6.31067 4.97841 5.74692 4.58112C5.18318 4.18384 4.73599 3.7122 4.43089 3.19312C4.33249 3.02571 4.24949 2.85442 4.1822 2.68032C3.95299 2.08734 4.48413 1.55586 5.11986 1.55586L10.0398 1.55586L14.9597 1.55586Z" fill="#FF8D8D"/>
</g>
</g>
</svg>
