<?xml version="1.0" encoding="UTF-8"?> <svg xmlns="http://www.w3.org/2000/svg" width="688" height="175" fill="none"><path fill="#D194FC" fill-rule="evenodd" d="M47 123.791A7.21 7.21 0 0 0 54.209 131H317v42H46.765C21.076 173 1 149.479 1 123.791v-.75C1.002 97.353 21.826 75 47.515 75H76v42H53.04a6.04 6.04 0 0 0-6.04 6.041z" clip-rule="evenodd"></path><path fill="#9613F4" d="M321 131h42v42h-42zM80 117h42V75H80z"></path><path fill="#FB93F1" fill-rule="evenodd" d="M521 66.209A7.21 7.21 0 0 0 513.791 59H308V17h213.235C546.924 17 567 40.52 567 66.209v.75C566.998 92.647 546.174 115 520.485 115H492V73h22.959A6.04 6.04 0 0 0 521 66.96z" clip-rule="evenodd"></path><path fill="#E129D0" d="M304 59h-42V17h42zM488 73h-42v42h42z"></path><path fill="#404040" fill-rule="evenodd" d="M618.345 115.627c13.028 0 20.461 7.433 18.543 19.342-1.784 11.149-11.505 14.012-20.529 16.669-7.148 2.105-13.859 4.081-15.837 9.946h32.849l-1.758 11.189h-44.838l1.199-7.433c2.658-16.74 14.294-19.497 23.987-21.793 6.921-1.64 12.852-3.045 13.817-9.138.8-5.035-3.037-8.072-9.191-8.072-6.954 0-11.909 4.236-13.108 11.669H592.29c2.158-13.508 12.708-22.379 26.055-22.379m-65.319 17.338h11.829l-1.599 10.311h-11.829l-4.715 29.652h-11.19l4.716-29.652h-8.632l1.598-10.311h8.632c1.839-11.269 10.471-17.184 25.736-17.184l-1.438 9.032c-7.833 0-12.229 2.638-13.108 8.152m-61.623 21.34-2.957 18.622h-11.19l6.314-39.962h9.991l.08 6.553c4.316-4.795 10.071-7.752 16.305-7.752 11.989 0 18.862 9.191 16.784 22.539l-2.957 18.622h-11.19l2.958-18.622c1.119-7.194-3.197-12.229-10.311-12.229s-12.708 5.035-13.827 12.229m-36.662-22.539c-14.067 0-25.896 9.031-27.894 21.26-1.839 12.069 7.193 21.1 21.18 21.1 14.227 0 25.896-8.632 27.814-21.1 2.078-12.708-6.874-21.26-21.1-21.26m-5.116 31.97c-7.593 0-12.548-4.476-11.589-10.71 1.039-6.394 7.353-10.95 15.026-10.95 7.993 0 12.628 4.556 11.589 10.95-.959 6.234-7.033 10.71-15.026 10.71m-61.077-10.71c-.959 6.394 3.996 10.87 11.589 10.87 6.074 0 10.95-2.398 13.428-6.554h11.589c-3.677 10.15-14.227 16.784-26.615 16.784-13.987 0-23.019-9.031-21.181-21.1 1.998-12.229 13.827-21.26 27.894-21.26 12.309 0 20.701 6.474 21.181 16.704h-11.59c-1.119-4.076-5.275-6.554-11.269-6.554-7.673 0-13.987 4.636-15.026 11.11m251.616-1.113c-1.918 12.388 6.954 22.059 20.461 22.059 12.469 0 23.099-8.312 24.857-19.581 1.759-10.71-5.754-17.025-19.901-17.025H655.35l1.998-9.351h28.374l1.758-11.189h-38.124l-5.035 23.178 4.316 5.914h15.745c6.873 0 10.79 3.197 9.911 8.632-.8 5.116-5.675 8.712-12.069 8.712-7.433 0-11.909-4.715-10.87-11.349zm-54.993-14.387 5.195-20.78h-9.352l-7.273 20.78z" clip-rule="evenodd"></path><path fill="#9613F4" fill-rule="evenodd" d="m391.801 115.16 2.958-18.623c1.119-7.193 6.713-12.229 13.827-12.229s11.429 5.036 10.31 12.229l-2.957 18.623h11.189l2.958-18.623c2.078-13.348-4.796-22.54-16.785-22.54-6.154 0-11.909 2.878-16.225 7.674l3.597-22.507h-11.19l-8.871 55.996zm-25.088-18.706 1.758-10.95h11.51l1.598-10.31H370.07l1.438-8.952h-4.475l-17.184 14.786-.72 4.476h8.153l-1.759 10.95c-1.998 12.548 4.796 19.902 19.582 19.902l1.599-10.391c-7.673 0-11.03-3.117-9.991-9.51m-91.529-21.259h12.069l6.074 24.857 13.907-24.857h11.909l6.074 24.937 13.907-24.937h12.149l-22.379 39.963h-12.069l-5.994-24.937-13.827 24.937h-12.149zM252.873 74c-14.066 0-25.895 9.032-27.894 21.26-1.838 12.069 7.194 21.101 21.181 21.101 14.226 0 25.896-8.632 27.814-21.1C276.052 82.551 267.1 74 252.873 74m-5.115 31.97c-7.593 0-12.548-4.476-11.589-10.71 1.039-6.394 7.353-10.95 15.026-10.95 7.993 0 12.628 4.556 11.589 10.95-.959 6.234-7.033 10.71-15.026 10.71M228.085 74l-1.918 11.829c-11.909 0-19.902 6.794-21.74 17.983l-1.759 11.35h-11.189l6.314-39.963h9.991l-.4 10.39C212.18 78.476 219.533 74 228.085 74m-53.819 34.848-.879 5.195c-1.039 6.793-7.273 11.349-15.266 11.349-5.994 0-10.55-2.557-12.468-6.554h-11.19c1.039 9.511 9.511 16.305 22.379 16.305 14.067 0 25.816-8.872 27.735-21.1l6.154-38.844h-9.911l-1.918 5.035C175.465 76.238 170.03 74 163.236 74c-13.347 0-24.697 8.632-26.535 20.62-1.918 11.75 6.714 20.302 19.982 20.302 6.633 0 12.868-2.238 17.583-6.074m-13.587-3.757c-8.392 0-13.747-4.476-12.788-10.55.959-6.314 7.753-10.71 16.145-10.71s13.427 4.396 12.468 10.71c-.959 6.234-7.353 10.55-15.825 10.55" clip-rule="evenodd"></path><path fill="#E129D0" fill-rule="evenodd" d="M195.773 1c-3.197 0-5.595 2.158-6.074 5.115-.48 3.197 1.279 5.195 4.476 5.195 3.037 0 5.435-1.998 5.914-5.195.48-2.957-1.279-5.115-4.316-5.115m-14.626 57.147h11.189l6.315-39.963h-11.19zm41.83-9.032c-7.593 0-12.548-4.476-11.589-10.87 1.039-6.474 7.353-11.11 15.026-11.11 5.994 0 10.15 2.478 11.269 6.554h11.59c-.48-10.23-8.872-16.705-21.181-16.705-14.067 0-25.896 9.032-27.894 21.26-1.838 12.07 7.193 21.101 21.18 21.101 12.389 0 22.939-6.634 26.616-16.784h-11.59c-2.477 4.156-7.353 6.554-13.427 6.554m-91.572-30.932h9.991l.24 5.116c4.715-3.997 10.95-6.315 17.663-6.315 13.268 0 21.82 9.032 19.902 21.1-1.918 12.23-13.268 21.261-26.615 21.261-6.634 0-12.069-2.238-15.506-6.234L133.19 75H122zm36.606 19.902c1.039-6.554-4.316-11.27-12.708-11.27s-14.786 4.636-15.825 11.27c-1.119 6.713 3.836 11.35 12.228 11.35 8.553 0 15.266-4.796 16.305-11.35m-81.127 2.877h36.286c.32-.88.479-1.838.559-2.717 2.078-12.709-6.793-21.26-20.461-21.26-13.827 0-25.496 9.031-27.494 21.26-1.838 12.068 7.034 21.1 20.78 21.1 10.951 0 20.302-5.275 24.618-13.428h-11.35c-2.477 2.878-6.633 4.636-11.429 4.636-6.714 0-11.19-3.836-11.51-9.59m25.816-5.595H87.763c2.078-5.594 7.593-9.351 14.067-9.351 6.554 0 10.63 3.677 10.87 9.351" clip-rule="evenodd"></path></svg> 