<svg width="24" height="24" viewBox="0 0 24 24" fill="none" xmlns="http://www.w3.org/2000/svg">
  <path d="M10 13C10.4295 13.5741 10.9774 14.0491 11.6066 14.3929C12.2357 14.7367 12.9315 14.9411 13.6467 14.9923C14.3618 15.0435 15.0796 14.9404 15.748 14.6898C16.4164 14.4392 17.0185 14.0471 17.512 13.542L20.512 10.542C21.4487 9.58909 21.9749 8.29865 21.9712 6.95481C21.9675 5.61096 21.4342 4.32381 20.4926 3.37635C19.5509 2.4289 18.2669 1.8897 16.9231 1.88031C15.5792 1.87091 14.2888 2.39175 13.335 3.32903L11.841 4.82003" stroke="#292D32" stroke-width="1.5" stroke-linecap="round" stroke-linejoin="round"/>
  <path d="M14 11C13.5705 10.4259 13.0226 9.95087 12.3935 9.60708C11.7643 9.26329 11.0685 9.05886 10.3534 9.00768C9.63822 8.9565 8.92045 9.05961 8.25202 9.31019C7.5836 9.56077 6.98152 9.95294 6.48803 10.458L3.48803 13.458C2.55136 14.4109 2.02515 15.7013 2.02882 17.0452C2.03249 18.389 2.56569 19.6762 3.50733 20.6236C4.44896 21.5711 5.73302 22.1103 7.07687 22.1197C8.42071 22.1291 9.71115 21.6082 10.665 20.671L12.154 19.182" stroke="#292D32" stroke-width="1.5" stroke-linecap="round" stroke-linejoin="round"/>
</svg> 