<svg xmlns="http://www.w3.org/2000/svg" width="100%" height="100%" viewBox="0 0 256 256">
  <path d="M128 0C57.308 0 0 57.308 0 128s57.308 128 128 128c70.693 0 128-57.308 128-128S198.693 0 128 0z" fill="#FF4500"/>
  <path d="M213.15 129.22c0-10.377-8.4-18.617-18.617-18.617-5.035 0-9.614 1.983-12.97 5.188-12.818-9.156-30.368-15.107-49.9-15.87l8.544-39.98 27.773 5.95c.307 7.02 6.105 12.667 13.278 12.667 7.324 0 13.275-5.951 13.275-13.278s-5.95-13.275-13.275-13.275c-5.188 0-9.768 3.052-11.904 7.478l-30.976-6.562c-.916-.154-1.832 0-2.443.458-.763.458-1.22 1.22-1.371 2.136l-9.464 44.558c-19.837.612-37.692 6.562-50.662 15.872-3.357-3.206-7.936-5.188-12.97-5.188-10.377 0-18.618 8.39-18.618 18.617 0 7.63 4.577 14.038 10.988 16.939-.307 1.829-.458 3.66-.458 5.646 0 28.686 33.42 52.036 74.622 52.036s74.62-23.196 74.62-52.036c0-1.832-.153-3.817-.457-5.646 6.409-2.9 10.985-9.463 10.985-17.092zm-127.878 13.275c0-7.325 5.95-13.275 13.278-13.275 7.324 0 13.275 5.95 13.275 13.275 0 7.324-5.95 13.278-13.275 13.278-7.327.15-13.278-5.954-13.278-13.278zm74.317 35.251c-9.156 9.156-26.553 9.768-31.588 9.768-5.188 0-22.585-.765-31.59-9.768-1.371-1.374-1.371-3.51 0-4.884 1.374-1.37 3.51-1.37 4.884 0 5.8 5.8 18.008 7.783 26.706 7.783s21.058-1.983 26.704-7.783c1.374-1.37 3.51-1.37 4.884 0 1.22 1.374 1.22 3.51 0 4.884zm-2.443-21.823c-7.325 0-13.275-5.95-13.275-13.275 0-7.324 5.95-13.275 13.275-13.275 7.327 0 13.278 5.95 13.278 13.275 0 7.17-5.95 13.275-13.278 13.275z" fill="white"/>
</svg> 