<svg xmlns="http://www.w3.org/2000/svg" width="100%" height="100%" viewBox="0 0 240 240">
  <circle cx="120" cy="120" r="120" fill="#0088CC"/>
  <path d="M49.942 118.96c33.584-14.26 56.038-23.647 67.361-28.162 32.058-12.743 38.716-14.96 43.032-15.01 
        .952-.011 3.076.222 4.45 1.359 1.143.95 1.458 2.232 1.61 3.13.152.898.339 2.94.189 4.538-.168 1.791-16.85 
        81.657-16.85 81.657s-1.341 3.947-4.025 4.671c-2.684.725-5.925-.398-7.803-1.437-1.878-1.04-35.49-22.74-35.49-22.74s-3.275-2.207-.625-3.993c.659-.445 
        1.622-1.029 2.476-1.536 2.74-1.631 6.613-3.663 6.613-3.663s24.52-16.166 25.549-17.865c.15-.249.288-.82-.24-.164-.528-.014-21.437 12.839-25.408 15.22-3.97 
        2.38-7.395 4.321-7.395 4.321s-3.779 2.233-10.821.462c-7.043-1.77-15.327-4.982-15.327-4.982s-5.7-3.532-3.496-7.806z" fill="white" fill-rule="evenodd"/>
</svg> 